{"asset":{"version":"2.0","generator":"Blockbench 4.12.3 glTF exporter"},"scenes":[{"nodes":[6],"name":"blockbench_export"}],"scene":0,"nodes":[{"name":"body","mesh":0},{"translation":[0,2.75,0],"name":"body","children":[0]},{"translation":[0,0,0.25],"name":"door_top","mesh":1},{"translation":[1.875,5,2],"name":"door_top","children":[2]},{"translation":[0,-0.125,0],"name":"door_bottom","mesh":2},{"translation":[1.875,2.125,2],"name":"door_bottom","children":[4]},{"children":[1,3,5]}],"bufferViews":[{"buffer":0,"byteOffset":0,"byteLength":1248,"target":34962,"byteStride":12},{"buffer":0,"byteOffset":1248,"byteLength":1248,"target":34962,"byteStride":12},{"buffer":0,"byteOffset":2496,"byteLength":832,"target":34962,"byteStride":8},{"buffer":0,"byteOffset":3328,"byteLength":312,"target":34963},{"buffer":0,"byteOffset":3640,"byteLength":3360,"target":34962,"byteStride":12},{"buffer":0,"byteOffset":7000,"byteLength":3360,"target":34962,"byteStride":12},{"buffer":0,"byteOffset":10360,"byteLength":2240,"target":34962,"byteStride":8},{"buffer":0,"byteOffset":12600,"byteLength":840,"target":34963},{"buffer":0,"byteOffset":13440,"byteLength":288,"target":34962,"byteStride":12},{"buffer":0,"byteOffset":13728,"byteLength":288,"target":34962,"byteStride":12},{"buffer":0,"byteOffset":14016,"byteLength":192,"target":34962,"byteStride":8},{"buffer":0,"byteOffset":14208,"byteLength":72,"target":34963},{"buffer":0,"byteOffset":14280,"byteLength":8},{"buffer":0,"byteOffset":14288,"byteLength":32},{"buffer":0,"byteOffset":14320,"byteLength":8},{"buffer":0,"byteOffset":14328,"byteLength":32},{"buffer":0,"byteOffset":14360,"byteLength":8},{"buffer":0,"byteOffset":14368,"byteLength":32},{"buffer":0,"byteOffset":14400,"byteLength":8},{"buffer":0,"byteOffset":14408,"byteLength":32}],"buffers":[{"byteLength":14440,"uri":"data:application/octet-stream;base64,"}],"accessors":[{"bufferView":0,"componentType":5126,"count":104,"max":[2,3.25,2],"min":[-2,-2.75,-2],"type":"VEC3"},{"bufferView":1,"componentType":5126,"count":104,"max":[1,1,1],"min":[-1,-1,-1],"type":"VEC3"},{"bufferView":2,"componentType":5126,"count":104,"max":[0.7578125,0.75390625],"min":[0,0],"type":"VEC2"},{"bufferView":3,"componentType":5123,"count":156,"max":[103],"min":[0],"type":"SCALAR"},{"bufferView":4,"componentType":5126,"count":280,"max":[0,0.875,0.5],"min":[-3.75,-0.875,-0.25],"type":"VEC3"},{"bufferView":5,"componentType":5126,"count":280,"max":[1,1,1],"min":[-1,-1,-1],"type":"VEC3"},{"bufferView":6,"componentType":5126,"count":280,"max":[0.50390625,0.32421875],"min":[0,0],"type":"VEC2"},{"bufferView":7,"componentType":5123,"count":420,"max":[279],"min":[0],"type":"SCALAR"},{"bufferView":8,"componentType":5126,"count":24,"max":[0,1.875,0.5],"min":[-3.75,-1.875,0],"type":"VEC3"},{"bufferView":9,"componentType":5126,"count":24,"max":[1,1,1],"min":[-1,-1,-1],"type":"VEC3"},{"bufferView":10,"componentType":5126,"count":24,"max":[0.5390625,0.50390625],"min":[0,0],"type":"VEC2"},{"bufferView":11,"componentType":5123,"count":36,"max":[23],"min":[0],"type":"SCALAR"},{"bufferView":12,"componentType":5126,"count":2,"max":[0.5416666865348816],"min":[0],"type":"SCALAR"},{"bufferView":13,"componentType":5126,"count":2,"max":[0,0.7071067690849304,0,1],"min":[0,0,0,0.7071067690849304],"type":"VEC4"},{"bufferView":14,"componentType":5126,"count":2,"max":[0.5416666865348816],"min":[0],"type":"SCALAR"},{"bufferView":15,"componentType":5126,"count":2,"max":[0,0.6915130615234375,0,1],"min":[0,0,0,0.7223639488220215],"type":"VEC4"},{"bufferView":16,"componentType":5126,"count":2,"max":[0.5],"min":[0],"type":"SCALAR"},{"bufferView":17,"componentType":5126,"count":2,"max":[0,0.7071067690849304,0,1],"min":[0,0,0,0.7071067690849304],"type":"VEC4"},{"bufferView":18,"componentType":5126,"count":2,"max":[0.5],"min":[0],"type":"SCALAR"},{"bufferView":19,"componentType":5126,"count":2,"max":[0,0.7071067690849304,0,1],"min":[0,0,0,0.7071067690849304],"type":"VEC4"}],"materials":[{"pbrMetallicRoughness":{"metallicFactor":0,"roughnessFactor":1},"alphaMode":"MASK","alphaCutoff":0.05,"doubleSided":true}],"meshes":[{"primitives":[{"mode":4,"attributes":{"POSITION":0,"NORMAL":1,"TEXCOORD_0":2},"indices":3,"material":0}]},{"primitives":[{"mode":4,"attributes":{"POSITION":4,"NORMAL":5,"TEXCOORD_0":6},"indices":7,"material":0}]},{"primitives":[{"mode":4,"attributes":{"POSITION":8,"NORMAL":9,"TEXCOORD_0":10},"indices":11,"material":0}]}],"animations":[{"name":"open","samplers":[{"input":12,"output":13,"interpolation":"LINEAR"},{"input":14,"output":15,"interpolation":"LINEAR"}],"channels":[{"sampler":0,"target":{"node":3,"path":"rotation"}},{"sampler":1,"target":{"node":5,"path":"rotation"}}]},{"name":"close","samplers":[{"input":16,"output":17,"interpolation":"LINEAR"},{"input":18,"output":19,"interpolation":"LINEAR"}],"channels":[{"sampler":0,"target":{"node":3,"path":"rotation"}},{"sampler":1,"target":{"node":5,"path":"rotation"}}]}]}